<svg width="138" height="43" viewBox="0 0 138 43" fill="none" xmlns="http://www.w3.org/2000/svg">
<path d="M11.5684 35.6445C10.502 36.0508 9.47363 36.2539 8.4834 36.2539C7.40853 36.2539 6.46061 36.0296 5.63965 35.5811C4.81868 35.1325 4.17546 34.5104 3.70996 33.7148C3.25293 32.9108 3.02441 31.984 3.02441 30.9346V27.4814H0.802734V23.3047H3.27832V20.1309H7.70898V23.3047H11.0479V27.4814H7.70898V30.084C7.70898 30.7357 7.89095 31.2308 8.25488 31.5693C8.61882 31.8994 9.04622 32.0645 9.53711 32.0645C10.0365 32.0645 10.5189 31.9036 10.9844 31.582L11.5684 35.6445ZM13.2188 36V16.957H17.9033V24.5234C18.792 23.5417 19.9896 23.0508 21.4961 23.0508C23.0365 23.0508 24.2383 23.5417 25.1016 24.5234C25.9733 25.4967 26.4092 26.8551 26.4092 28.5986V36H21.7246V29.8809C21.7246 29.0345 21.5596 28.3828 21.2295 27.9258C20.9079 27.4688 20.4466 27.2402 19.8457 27.2402C19.2279 27.2402 18.7497 27.473 18.4111 27.9385C18.0726 28.3955 17.9033 29.043 17.9033 29.8809V36H13.2188ZM40.7803 34.667C39.1976 35.7249 37.4795 36.2539 35.626 36.2539C34.1956 36.2539 32.9092 35.9577 31.7666 35.3652C30.6325 34.7643 29.7311 33.9476 29.0625 32.915C28.4023 31.8825 28.0723 30.723 28.0723 29.4365C28.0723 28.2178 28.3685 27.1302 28.9609 26.1738C29.5534 25.209 30.3574 24.4473 31.373 23.8887C32.3971 23.3301 33.5524 23.0508 34.8389 23.0508C36.1846 23.0508 37.3652 23.3597 38.3809 23.9775C39.3965 24.5954 40.1878 25.4544 40.7549 26.5547C41.3219 27.6549 41.6055 28.9329 41.6055 30.3887V30.7949H33.0996C33.252 31.125 33.4635 31.4255 33.7344 31.6963C34.0052 31.9587 34.3438 32.1702 34.75 32.3311C35.1562 32.4919 35.6302 32.5723 36.1719 32.5723C37.3652 32.5723 38.4951 32.1914 39.5615 31.4297L40.7803 34.667ZM32.8838 28.8906H37.3145C37.2721 28.4928 37.1494 28.1416 36.9463 27.8369C36.7516 27.5322 36.4893 27.2952 36.1592 27.126C35.8376 26.9482 35.4779 26.8594 35.0801 26.8594C34.6738 26.8594 34.3184 26.9525 34.0137 27.1387C33.709 27.3249 33.4593 27.5703 33.2646 27.875C33.0785 28.1797 32.9515 28.5182 32.8838 28.8906ZM47.6104 36H43.5098V16.957H48.1943V24.5742C48.6937 24.0918 49.2607 23.7194 49.8955 23.457C50.5303 23.1862 51.2201 23.0508 51.9648 23.0508C53.0736 23.0508 54.0553 23.3385 54.9102 23.9141C55.765 24.4811 56.4378 25.264 56.9287 26.2627C57.4196 27.2529 57.665 28.3828 57.665 29.6523C57.665 30.9219 57.4196 32.056 56.9287 33.0547C56.4378 34.0449 55.765 34.8278 54.9102 35.4033C54.0553 35.9704 53.0736 36.2539 51.9648 36.2539C51.1354 36.2539 50.3652 36.0889 49.6543 35.7588C48.9518 35.4202 48.3467 34.9548 47.8389 34.3623L47.6104 36ZM50.5303 32.0645C50.9873 32.0645 51.3893 31.9629 51.7363 31.7598C52.0918 31.5482 52.3669 31.2604 52.5615 30.8965C52.7646 30.5241 52.8662 30.1009 52.8662 29.627C52.8662 29.1699 52.7646 28.7637 52.5615 28.4082C52.3669 28.0443 52.0918 27.7607 51.7363 27.5576C51.3893 27.346 50.9873 27.2402 50.5303 27.2402C50.1071 27.2402 49.722 27.3333 49.375 27.5195C49.0365 27.7057 48.7614 27.9596 48.5498 28.2812C48.3467 28.6029 48.2282 28.9753 48.1943 29.3984V29.8682C48.2282 30.2998 48.3467 30.6807 48.5498 31.0107C48.7614 31.3408 49.0365 31.599 49.375 31.7852C49.722 31.9714 50.1071 32.0645 50.5303 32.0645ZM65.8789 36.2539C64.5417 36.2539 63.3483 35.9704 62.2988 35.4033C61.2578 34.8278 60.4368 34.0449 59.8359 33.0547C59.2435 32.056 58.9473 30.9219 58.9473 29.6523C58.9473 28.3828 59.2435 27.2529 59.8359 26.2627C60.4368 25.264 61.2578 24.4811 62.2988 23.9141C63.3483 23.3385 64.5417 23.0508 65.8789 23.0508C67.2077 23.0508 68.3883 23.3385 69.4209 23.9141C70.4619 24.4811 71.2786 25.264 71.8711 26.2627C72.4635 27.2529 72.7598 28.3828 72.7598 29.6523C72.7598 30.9219 72.4635 32.056 71.8711 33.0547C71.2786 34.0449 70.4619 34.8278 69.4209 35.4033C68.3883 35.9704 67.2077 36.2539 65.8789 36.2539ZM65.8535 32.0645C66.2598 32.0645 66.6195 31.9629 66.9326 31.7598C67.2542 31.5482 67.5039 31.2604 67.6816 30.8965C67.8678 30.5241 67.9609 30.1009 67.9609 29.627C67.9609 29.1699 67.8678 28.7637 67.6816 28.4082C67.5039 28.0443 67.2542 27.7607 66.9326 27.5576C66.6195 27.346 66.2598 27.2402 65.8535 27.2402C65.4473 27.2402 65.0833 27.346 64.7617 27.5576C64.4486 27.7607 64.1989 28.0443 64.0127 28.4082C63.835 28.7637 63.7461 29.1699 63.7461 29.627C63.7461 30.1009 63.835 30.5241 64.0127 30.8965C64.1989 31.2604 64.4486 31.5482 64.7617 31.7598C65.0833 31.9629 65.4473 32.0645 65.8535 32.0645ZM82.3701 42.3477H77.4189L80.0342 36.0381L73.3945 23.3047H78.7266L82.2432 30.7188L85.3154 23.3047H90.2666L82.3701 42.3477ZM90.4062 34.9209L91.3711 31.0615C91.5996 31.3324 91.9382 31.5947 92.3867 31.8486C92.8438 32.1025 93.3389 32.3099 93.8721 32.4707C94.4053 32.623 94.8962 32.6992 95.3447 32.6992C95.6833 32.6992 95.9414 32.6484 96.1191 32.5469C96.2969 32.4453 96.3857 32.3014 96.3857 32.1152C96.3857 31.9206 96.3011 31.7555 96.1318 31.6201C95.9626 31.4762 95.734 31.3451 95.4463 31.2266C95.167 31.1081 94.8454 30.9854 94.4814 30.8584C93.9398 30.6637 93.3685 30.4268 92.7676 30.1475C92.1751 29.8597 91.6715 29.4704 91.2568 28.9795C90.8421 28.4801 90.6348 27.8158 90.6348 26.9863C90.6348 26.1823 90.8464 25.4883 91.2695 24.9043C91.7012 24.3118 92.3063 23.8548 93.085 23.5332C93.8721 23.2116 94.7946 23.0508 95.8525 23.0508C97.6214 23.0508 99.403 23.4951 101.197 24.3838L99.8896 27.9512C99.6188 27.7142 99.2633 27.4899 98.8232 27.2783C98.3831 27.0667 97.9303 26.8932 97.4648 26.7578C97.0078 26.6224 96.61 26.5547 96.2715 26.5547C95.9922 26.5547 95.7806 26.6055 95.6367 26.707C95.5013 26.8001 95.4336 26.9313 95.4336 27.1006C95.4336 27.2868 95.514 27.4518 95.6748 27.5957C95.8441 27.7311 96.0684 27.8581 96.3477 27.9766C96.6354 28.0866 96.9486 28.2051 97.2871 28.332C97.8542 28.5267 98.4382 28.7679 99.0391 29.0557C99.64 29.335 100.148 29.7243 100.562 30.2236C100.986 30.7145 101.197 31.3789 101.197 32.2168C101.197 33.0378 100.969 33.7529 100.512 34.3623C100.063 34.9632 99.4242 35.4287 98.5947 35.7588C97.7738 36.0889 96.8005 36.2539 95.6748 36.2539C93.7959 36.2539 92.0397 35.8096 90.4062 34.9209Z" fill="#E6E6E6"/>
<path fill-rule="evenodd" clip-rule="evenodd" d="M122.917 0.502124C121.051 1.50689 120.093 4.04456 121.169 5.13456C122.007 5.98389 122.741 5.55602 123.26 3.91447C124.081 1.31552 125.206 0.704915 126.589 2.10662C127.749 3.28214 127.861 5.33039 126.871 7.29283C126.66 7.71095 125.697 9.11489 124.731 10.4124C122.889 12.8874 121.921 15.1412 122.25 16.1906C122.4 16.6716 122.555 16.3583 122.955 14.7632C123.519 12.5133 124.102 11.6052 126.724 8.90012C128.817 6.74129 129.52 5.45295 129.52 3.77937C129.52 2.39187 128.686 1.11969 127.302 0.394043C126.219 -0.173103 124.073 -0.120176 122.917 0.502124ZM113.576 6.26439C110.463 7.68198 110.034 10.8389 112.761 12.249C113.694 12.7311 114.379 12.8414 116.347 12.8259C117.685 12.8153 119.124 12.9311 119.545 13.0835C120.216 13.3261 120.251 13.3136 119.831 12.9813C119.567 12.7726 118.409 12.5297 117.257 12.4414C115.62 12.3161 115.022 12.1476 114.52 11.6698C113.621 10.8144 113.439 9.69123 114.003 8.48563C114.894 6.5839 116.201 6.54964 118.586 8.36557C119.375 8.96586 120.116 9.45724 120.234 9.45724C120.598 9.45724 120.469 8.79956 119.929 7.90288C118.919 6.22373 115.564 5.3588 113.576 6.26439ZM115.086 17.8533C112.932 18.1302 111.538 18.5207 110.619 19.1051C110.084 19.445 110 19.7355 110 21.2534C110 23.5401 110.706 27.6859 111.573 30.4884C113.234 35.8546 114.744 37.302 119.285 37.8789C121.956 38.2182 126.345 37.8112 127.971 37.0739C129.28 36.4802 129.923 35.8159 130.892 34.0587C131.476 32.9983 131.836 32.7038 133.232 32.1456C136.251 30.938 138.294 27.78 137.965 24.8276C137.869 23.9624 137.626 23.3846 137.215 23.0479C136.431 22.4049 135.937 22.4197 134.637 23.1256C134.193 23.3668 133.662 23.0051 133.724 22.5036L133.769 22.1353C134.015 20.145 133.594 19.4335 131.802 18.8079C128.592 17.6873 120.137 17.2042 115.086 17.8533ZM128.575 19.0854C129.794 19.2968 131.265 19.6706 131.844 19.9157C132.76 20.3035 132.846 20.4135 132.502 20.7623C132.284 20.9829 131.184 21.3734 130.057 21.6305C127.283 22.2634 117.961 22.2657 114.922 21.6339C112.506 21.1319 110.72 20.44 110.934 20.0893C111.211 19.6349 113.976 18.9252 116.461 18.6703C119.498 18.3589 125.592 18.5675 128.575 19.0854ZM136.917 24.2905C137.214 25.0824 136.904 27.1594 136.319 28.2884C136.073 28.7633 135.457 29.5216 134.949 29.9728C134.064 30.76 132.353 31.6548 132.159 31.4314C132.027 31.2773 133.461 25.5468 133.743 25.1036C134.083 24.5693 135.622 23.666 136.194 23.6649C136.463 23.6643 136.788 23.9459 136.917 24.2905Z" fill="#E6E6E6"/>
<path d="M110.686 34.1524C110.686 34.1524 110.524 33.6315 109.944 33.3647C109.364 33.0979 107.472 32.8819 106.439 33.0725C105.407 33.263 103.91 33.6696 103.492 34.3048C103.074 34.9401 102.819 35.1688 103.155 36.3757C103.492 37.5827 105.592 37.9638 105.592 37.9638C105.592 37.9638 107.484 38.2179 108.923 37.3794C110.361 36.5409 110.628 35.9692 110.628 35.9692C110.628 35.9692 110.988 35.5499 111 34.9909C111.011 34.4319 110.686 34.2794 110.686 34.2794C110.686 34.2794 110.327 33.9491 109.874 34.0889C109.422 34.2286 109.422 34.2413 109.213 34.2794C109.004 34.3175 108.76 34.2286 108.516 34.2794C108.273 34.3302 107.147 34.8766 106.091 35.029C105.035 35.1815 104.583 35.0925 104.293 35.1815C104.002 35.2704 103.852 35.461 103.736 35.3339C103.619 35.2069 103.921 34.8511 104.304 34.7876C104.687 34.7241 104.733 34.813 105.244 34.8003C105.755 34.7876 107.031 34.0507 108.528 33.8983C110.025 33.7458 110.686 34.1524 110.686 34.1524Z" fill="#E6E6E6"/>
</svg>
