<svg width="45" height="50" viewBox="0 0 45 50" fill="none" xmlns="http://www.w3.org/2000/svg">
<rect width="45" height="50" rx="5" fill="#303030"/>
<path d="M33.2428 14.9895C31.267 14.0686 29.1482 13.3902 26.9329 13.0016C26.8925 12.9941 26.8522 13.0129 26.8314 13.0504C26.5589 13.5426 26.2571 14.1848 26.0457 14.6896C23.663 14.3273 21.2925 14.3273 18.9587 14.6896C18.7473 14.1736 18.4345 13.5426 18.1607 13.0504C18.14 13.0141 18.0997 12.9954 18.0593 13.0016C15.8452 13.389 13.7264 14.0674 11.7494 14.9895C11.7323 14.997 11.7176 15.0095 11.7079 15.0257C7.68896 21.1242 6.58802 27.0727 7.12811 32.9475C7.13055 32.9762 7.14644 33.0037 7.16843 33.0212C9.81998 34.999 12.3885 36.1998 14.9092 36.9956C14.9496 37.0081 14.9923 36.9931 15.018 36.9594C15.6143 36.1323 16.1458 35.2602 16.6016 34.3431C16.6285 34.2894 16.6028 34.2257 16.5478 34.2044C15.7047 33.8796 14.9019 33.4835 14.1297 33.0337C14.0686 32.9975 14.0637 32.9087 14.1199 32.8663C14.2824 32.7426 14.4449 32.6139 14.6001 32.4839C14.6282 32.4602 14.6673 32.4552 14.7003 32.4702C19.7737 34.8229 25.2662 34.8229 30.2796 32.4702C30.3127 32.454 30.3518 32.459 30.3811 32.4827C30.5363 32.6126 30.6988 32.7426 30.8625 32.8663C30.9187 32.9087 30.9151 32.9975 30.854 33.0337C30.0817 33.4922 29.2789 33.8796 28.4346 34.2032C28.3796 34.2244 28.3552 34.2894 28.3821 34.3431C28.8476 35.2589 29.3791 36.131 29.9644 36.9582C29.9889 36.9931 30.0328 37.0081 30.0732 36.9956C32.6062 36.1998 35.1746 34.999 37.8262 33.0212C37.8494 33.0037 37.8641 32.9775 37.8665 32.9488C38.5129 26.1568 36.7839 20.2571 33.2831 15.0269C33.2746 15.0095 33.2599 14.997 33.2428 14.9895ZM17.3592 29.3704C15.8318 29.3704 14.5732 27.946 14.5732 26.1968C14.5732 24.4476 15.8074 23.0233 17.3592 23.0233C18.9232 23.0233 20.1696 24.4601 20.1451 26.1968C20.1451 27.946 18.911 29.3704 17.3592 29.3704ZM27.6599 29.3704C26.1325 29.3704 24.8739 27.946 24.8739 26.1968C24.8739 24.4476 26.1081 23.0233 27.6599 23.0233C29.2239 23.0233 30.4703 24.4601 30.4459 26.1968C30.4459 27.946 29.2239 29.3704 27.6599 29.3704Z" fill="#E3E3E3"/>
</svg>
